<svg width="17" height="16" viewBox="0 0 17 16" fill="none" xmlns="http://www.w3.org/2000/svg">
<path fill-rule="evenodd" clip-rule="evenodd" d="M13.8375 13.6264C14.1135 13.6264 14.3375 13.8504 14.3375 14.1264C14.3375 14.4024 14.1135 14.6264 13.8375 14.6264H9.00214C8.72614 14.6264 8.50214 14.4024 8.50214 14.1264C8.50214 13.8504 8.72614 13.6264 9.00214 13.6264H13.8375ZM10.748 2.43576C10.7813 2.46176 11.8967 3.32843 11.8967 3.32843C12.302 3.56976 12.6187 4.0011 12.7387 4.51176C12.858 5.01709 12.7713 5.53843 12.4933 5.97909C12.4915 5.98203 12.4896 5.98494 12.4832 5.99358L12.4782 6.00025C12.4331 6.05972 12.2369 6.30776 11.2469 7.54815C11.2377 7.56441 11.2273 7.57963 11.2159 7.59443C11.1992 7.61624 11.181 7.63628 11.1616 7.65453C11.0941 7.73956 11.0228 7.8289 10.9478 7.92283L10.7958 8.11313C10.4823 8.50579 10.1104 8.97139 9.6692 9.52364L9.44277 9.80705C8.59099 10.8732 7.50011 12.2382 6.10267 13.9864C5.79667 14.3678 5.33801 14.5898 4.84534 14.5958L2.41934 14.6264H2.41267C2.18134 14.6264 1.98001 14.4678 1.92601 14.2418L1.38001 11.9278C1.26734 11.4484 1.37934 10.9538 1.68667 10.5698L7.96667 2.7151C7.96934 2.71243 7.97134 2.7091 7.97401 2.70643C8.66267 1.8831 9.90801 1.76176 10.748 2.43576ZM7.26649 5.19133L2.46734 11.1944C2.35334 11.3371 2.31134 11.5211 2.35334 11.6978L2.80734 13.6211L4.83334 13.5958C5.02601 13.5938 5.20401 13.5078 5.32201 13.3611C5.92966 12.6008 6.69338 11.6452 7.47858 10.6627L7.75638 10.315L8.03465 9.96681C8.77104 9.04526 9.49853 8.13471 10.1072 7.37258L7.26649 5.19133ZM8.74401 3.34443L7.89116 4.41L10.7317 6.59062C11.2784 5.9058 11.6381 5.45476 11.6713 5.41176C11.7807 5.23443 11.8233 4.98376 11.766 4.74243C11.7073 4.49509 11.5533 4.28509 11.3313 4.15109C11.284 4.11843 10.1607 3.24643 10.126 3.21909C9.70334 2.88043 9.08667 2.9391 8.74401 3.34443Z" fill="#0078D4"/>
</svg>
