<svg width="120" height="108" viewBox="0 0 120 108" fill="none" xmlns="http://www.w3.org/2000/svg">
<g clip-path="url(#clip0_2125_8824)">
<path d="M61.4554 0.23475L57.5508 1.24448L9.44549 13.6845L5.5409 14.6942C3.64566 15.1866 2.02258 16.4128 1.02776 18.1037C0.0329272 19.7947 -0.252408 21.8123 0.23435 23.7139L17.1655 89.5525C17.6565 91.453 18.8793 93.0807 20.5655 94.0783C22.2517 95.0759 24.2637 95.362 26.1601 94.8739L26.1701 94.8713L82.0645 80.417L82.0746 80.4144C83.9698 79.922 85.5929 78.6958 86.5877 77.0049C87.5825 75.314 87.8679 73.2964 87.3811 71.3947L70.45 5.55616C69.9589 3.65562 68.7362 2.028 67.05 1.03039C65.3637 0.0327745 63.3518 -0.253364 61.4554 0.23475Z" fill="#F2F2F2"/>
<path d="M61.9867 2.29956L57.362 3.49551L10.6968 15.5631L6.07219 16.7591C4.72254 17.1097 3.56671 17.9829 2.85826 19.187C2.14981 20.3912 1.94662 21.828 2.29325 23.1822L19.2244 89.0207C19.5741 90.3741 20.4448 91.5332 21.6456 92.2436C22.8464 92.954 24.2792 93.1578 25.6296 92.8102L25.6397 92.8076L81.534 78.3533L81.5442 78.3507C82.8938 78 84.0496 77.1268 84.7581 75.9227C85.4665 74.7186 85.6697 73.2818 85.3231 71.9276L68.3919 6.08906C68.0422 4.73565 67.1715 3.5766 65.9707 2.86617C64.7699 2.15575 63.3372 1.95198 61.9867 2.29956Z" fill="white"/>
<path d="M58.4947 23.6203L30.2192 30.9324C29.9034 31.0141 29.5681 30.9666 29.2872 30.8004C29.0063 30.6342 28.8028 30.3629 28.7213 30.0462C28.6399 29.7296 28.6872 29.3934 28.853 29.1117C29.0187 28.83 29.2892 28.6259 29.605 28.5442L57.8806 21.2322C58.1963 21.1508 58.5313 21.1985 58.8119 21.3647C59.0926 21.5309 59.296 21.8021 59.3774 22.1186C59.4588 22.4351 59.4115 22.7711 59.246 23.0527C59.0805 23.3342 58.8103 23.5384 58.4947 23.6203Z" fill="#F2F2F2"/>
<path d="M64.443 26.3794L31.2555 34.9617C30.9397 35.0434 30.6045 34.9959 30.3236 34.8297C30.0427 34.6635 29.8392 34.3922 29.7577 34.0755C29.6763 33.7588 29.7236 33.4227 29.8893 33.141C30.0551 32.8593 30.3256 32.6552 30.6414 32.5735L63.8289 23.9912C64.1447 23.9095 64.4799 23.957 64.7608 24.1232C65.0417 24.2894 65.2453 24.5607 65.3267 24.8774C65.4081 25.1941 65.3608 25.5302 65.1951 25.8119C65.0294 26.0936 64.7588 26.2977 64.443 26.3794Z" fill="#F2F2F2"/>
<path d="M63.1393 41.6802L34.8637 48.9922C34.7073 49.0327 34.5445 49.0418 34.3846 49.0192C34.2247 48.9965 34.0708 48.9425 33.9318 48.8602C33.7927 48.778 33.6711 48.669 33.574 48.5396C33.4769 48.4102 33.4062 48.2629 33.3659 48.1061C33.3255 47.9493 33.3164 47.786 33.339 47.6257C33.3616 47.4653 33.4154 47.311 33.4975 47.1715C33.5796 47.0321 33.6882 46.9102 33.8172 46.8128C33.9463 46.7154 34.0932 46.6445 34.2496 46.6041L62.5252 39.292C62.6815 39.2516 62.8443 39.2424 63.0042 39.265C63.1641 39.2877 63.318 39.3417 63.4571 39.424C63.5962 39.5063 63.7177 39.6152 63.8148 39.7446C63.9119 39.874 63.9827 40.0213 64.023 40.1782C64.0633 40.335 64.0725 40.4982 64.0499 40.6585C64.0273 40.8189 63.9734 40.9732 63.8914 41.1127C63.8093 41.2522 63.7007 41.3741 63.5716 41.4714C63.4426 41.5688 63.2957 41.6397 63.1393 41.6802Z" fill="#F2F2F2"/>
<path d="M69.0875 44.4399L35.9001 53.0222C35.7437 53.0627 35.5809 53.0718 35.421 53.0492C35.2611 53.0265 35.1072 52.9725 34.9681 52.8902C34.829 52.8079 34.7075 52.699 34.6104 52.5696C34.5133 52.4402 34.4426 52.2929 34.4022 52.1361C34.3619 51.9793 34.3528 51.816 34.3754 51.6557C34.398 51.4953 34.4518 51.341 34.5339 51.2015C34.6159 51.0621 34.7246 50.9402 34.8536 50.8428C34.9826 50.7454 35.1295 50.6745 35.2859 50.6341L68.4734 42.0518C68.7892 41.9701 69.1244 42.0176 69.4053 42.1838C69.6862 42.3499 69.8898 42.6212 69.9712 42.9379C70.0527 43.2546 70.0053 43.5908 69.8396 43.8725C69.6739 44.1541 69.4033 44.3583 69.0875 44.4399Z" fill="#F2F2F2"/>
<path d="M67.7838 59.7407L39.5081 67.0528C39.1924 67.1342 38.8574 67.0866 38.5767 66.9204C38.2959 66.7542 38.0925 66.483 38.0111 66.1664C37.9297 65.8499 37.977 65.5139 38.1425 65.2323C38.3081 64.9506 38.5784 64.7465 38.894 64.6646L67.1696 57.3525C67.4854 57.2709 67.8206 57.3184 68.1015 57.4845C68.3824 57.6507 68.586 57.922 68.6674 58.2387C68.7489 58.5554 68.7015 58.8916 68.5358 59.1732C68.3701 59.4549 68.0996 59.6591 67.7838 59.7407Z" fill="#F2F2F2"/>
<path d="M73.7319 62.5005L40.5444 71.0828C40.388 71.1234 40.2251 71.1327 40.0651 71.1101C39.9051 71.0875 39.7511 71.0336 39.6119 70.9513C39.4727 70.869 39.351 70.7601 39.2539 70.6306C39.1567 70.5012 39.0859 70.3538 39.0456 70.1969C39.0052 70.04 38.9961 69.8766 39.0187 69.7162C39.0413 69.5558 39.0953 69.4014 39.1775 69.2619C39.2596 69.1224 39.3684 69.0004 39.4976 68.9031C39.6268 68.8058 39.7738 68.7349 39.9303 68.6946L73.1178 60.1123C73.4336 60.0306 73.7688 60.0781 74.0497 60.2443C74.3306 60.4105 74.5342 60.6818 74.6156 60.9985C74.6971 61.3152 74.6497 61.6513 74.484 61.933C74.3183 62.2147 74.0477 62.4188 73.7319 62.5005Z" fill="#F2F2F2"/>
<path d="M25.392 38.4297L15.3855 41.0174C15.2341 41.0564 15.0735 41.0336 14.9388 40.9539C14.8042 40.8742 14.7065 40.7443 14.6673 40.5925L12.3703 31.6605C12.3315 31.5086 12.3543 31.3475 12.4337 31.2125C12.5131 31.0775 12.6427 30.9796 12.7941 30.9403L22.8005 28.3526C22.952 28.3136 23.1126 28.3364 23.2473 28.4161C23.3819 28.4958 23.4795 28.6257 23.5188 28.7775L25.8157 37.7095C25.8546 37.8614 25.8318 38.0225 25.7524 38.1575C25.6729 38.2925 25.5433 38.3904 25.392 38.4297Z" fill="#EDEBE9"/>
<path d="M30.0365 56.4903L20.0301 59.0779C19.8786 59.1169 19.718 59.0941 19.5833 59.0144C19.4487 58.9348 19.351 58.8048 19.3118 58.653L17.0149 49.721C16.976 49.5692 16.9988 49.4081 17.0782 49.273C17.1577 49.138 17.2873 49.0401 17.4386 49.0008L27.445 46.4131C27.5965 46.3741 27.7571 46.397 27.8918 46.4766C28.0264 46.5563 28.1241 46.6863 28.1633 46.838L30.4602 55.7701C30.4991 55.9219 30.4763 56.083 30.3969 56.218C30.3174 56.353 30.1878 56.4509 30.0365 56.4903Z" fill="#EDEBE9"/>
<path d="M34.6811 74.5508L24.6746 77.1385C24.5232 77.1775 24.3625 77.1547 24.2279 77.075C24.0932 76.9953 23.9956 76.8654 23.9564 76.7136L21.6594 67.7816C21.6205 67.6297 21.6433 67.4686 21.7228 67.3336C21.8022 67.1986 21.9318 67.1007 22.0831 67.0614L32.0896 64.4737C32.241 64.4347 32.4017 64.4575 32.5363 64.5372C32.671 64.6169 32.7686 64.7468 32.8078 64.8986L35.1048 73.8306C35.1437 73.9825 35.1209 74.1436 35.0415 74.2786C34.962 74.4136 34.8324 74.5115 34.6811 74.5508Z" fill="#EDEBE9"/>
<path d="M100.453 16.9248H42.7097C40.7519 16.927 38.8749 17.7079 37.4905 19.0962C36.1061 20.4844 35.3274 22.3667 35.3252 24.3299V92.3225C35.3274 94.2858 36.1061 96.168 37.4905 97.5562C38.8749 98.9445 40.7519 99.7254 42.7097 99.7276H100.453C102.411 99.7254 104.288 98.9445 105.673 97.5562C107.057 96.168 107.836 94.2858 107.838 92.3225V24.3299C107.836 22.3667 107.057 20.4844 105.673 19.0962C104.288 17.7079 102.411 16.927 100.453 16.9248Z" fill="#EDEBE9"/>
<path d="M100.454 19.0566H42.7096C41.3154 19.0582 39.9787 19.6143 38.9929 20.6029C38.007 21.5915 37.4525 22.9319 37.4509 24.33V92.3225C37.4525 93.7206 38.007 95.061 38.9929 96.0496C39.9787 97.0382 41.3154 97.5943 42.7096 97.5959H100.454C101.848 97.5943 103.184 97.0382 104.17 96.0496C105.156 95.061 105.711 93.7206 105.712 92.3225V24.33C105.711 22.9319 105.156 21.5915 104.17 20.6029C103.184 19.6143 101.848 19.0582 100.454 19.0566Z" fill="white"/>
<path d="M106.52 108C113.965 108 120 101.948 120 94.4826C120 87.0169 113.965 80.9648 106.52 80.9648C99.075 80.9648 93.0398 87.0169 93.0398 94.4826C93.0398 101.948 99.075 108 106.52 108Z" fill="#0078D4"/>
<path d="M112.967 92.7189H108.278V88.0171C108.278 87.5495 108.093 87.101 107.763 86.7703C107.434 86.4397 106.986 86.2539 106.52 86.2539C106.054 86.2539 105.606 86.4397 105.277 86.7703C104.947 87.101 104.762 87.5495 104.762 88.0171V92.7189H100.073C99.6066 92.7189 99.1594 92.9047 98.8297 93.2353C98.4999 93.566 98.3147 94.0145 98.3147 94.4821C98.3147 94.9497 98.4999 95.3982 98.8297 95.7289C99.1594 96.0595 99.6066 96.2453 100.073 96.2453H104.762V100.947C104.762 101.415 104.947 101.863 105.277 102.194C105.606 102.525 106.054 102.71 106.52 102.71C106.986 102.71 107.434 102.525 107.763 102.194C108.093 101.863 108.278 101.415 108.278 100.947V96.2453H112.967C113.433 96.2453 113.881 96.0595 114.21 95.7289C114.54 95.3982 114.725 94.9497 114.725 94.4821C114.725 94.0145 114.54 93.566 114.21 93.2353C113.881 92.9047 113.433 92.7189 112.967 92.7189Z" fill="white"/>
<path d="M91.763 56.4185H62.5624C62.4008 56.4186 62.2407 56.3869 62.0914 56.325C61.942 56.2631 61.8063 56.1723 61.692 56.0578C61.5776 55.9432 61.4869 55.8072 61.425 55.6575C61.3632 55.5078 61.3313 55.3474 61.3313 55.1853C61.3313 55.0232 61.3632 54.8628 61.425 54.7131C61.4869 54.5634 61.5776 54.4274 61.692 54.3128C61.8063 54.1983 61.942 54.1075 62.0914 54.0456C62.2407 53.9837 62.4008 53.952 62.5624 53.9521H91.763C92.0889 53.9525 92.4014 54.0826 92.6317 54.3138C92.862 54.545 92.9914 54.8585 92.9914 55.1853C92.9914 55.5121 92.862 55.8256 92.6317 56.0568C92.4014 56.288 92.0889 56.4181 91.763 56.4185Z" fill="#EDEBE9"/>
<path d="M96.8356 60.5805H62.5624C62.4008 60.5807 62.2407 60.5489 62.0914 60.4871C61.942 60.4252 61.8063 60.3344 61.692 60.2198C61.5776 60.1053 61.4869 59.9693 61.425 59.8196C61.3632 59.6699 61.3313 59.5094 61.3313 59.3474C61.3313 59.1853 61.3632 59.0249 61.425 58.8752C61.4869 58.7255 61.5776 58.5895 61.692 58.4749C61.8063 58.3604 61.942 58.2696 62.0914 58.2077C62.2407 58.1458 62.4008 58.1141 62.5624 58.1143H96.8356C97.1617 58.1143 97.4745 58.2442 97.7051 58.4754C97.9357 58.7067 98.0653 59.0203 98.0653 59.3474C98.0653 59.6744 97.9357 59.9881 97.7051 60.2193C97.4745 60.4506 97.1617 60.5805 96.8356 60.5805Z" fill="#EDEBE9"/>
<path d="M91.763 75.0698H62.5624C62.4008 75.07 62.2407 75.0382 62.0914 74.9763C61.942 74.9144 61.8063 74.8236 61.692 74.7091C61.5776 74.5946 61.4869 74.4586 61.425 74.3089C61.3632 74.1592 61.3313 73.9987 61.3313 73.8367C61.3313 73.6746 61.3632 73.5141 61.425 73.3644C61.4869 73.2147 61.5776 73.0787 61.692 72.9642C61.8063 72.8497 61.942 72.7589 62.0914 72.697C62.2407 72.6351 62.4008 72.6033 62.5624 72.6035H91.763C92.0891 72.6035 92.4019 72.7334 92.6325 72.9647C92.8631 73.196 92.9927 73.5096 92.9927 73.8367C92.9927 74.1637 92.8631 74.4774 92.6325 74.7086C92.4019 74.9399 92.0891 75.0698 91.763 75.0698Z" fill="#EDEBE9"/>
<path d="M96.8357 79.232H62.5624C62.4008 79.2322 62.2407 79.2004 62.0914 79.1385C61.942 79.0766 61.8063 78.9858 61.692 78.8713C61.5776 78.7567 61.4869 78.6207 61.425 78.471C61.3632 78.3213 61.3313 78.1609 61.3313 77.9988C61.3313 77.8367 61.3632 77.6763 61.425 77.5266C61.4869 77.3769 61.5776 77.2409 61.692 77.1263C61.8063 77.0118 61.942 76.921 62.0914 76.8591C62.2407 76.7972 62.4008 76.7654 62.5624 76.7656H96.8357C96.9973 76.7654 97.1573 76.7972 97.3067 76.8591C97.456 76.921 97.5918 77.0118 97.7061 77.1263C97.8204 77.2409 97.9111 77.3769 97.973 77.5266C98.0349 77.6763 98.0667 77.8367 98.0667 77.9988C98.0667 78.1609 98.0349 78.3213 97.973 78.471C97.9111 78.6207 97.8204 78.7567 97.7061 78.8713C97.5918 78.9858 97.456 79.0766 97.3067 79.1385C97.1573 79.2004 96.9973 79.2322 96.8357 79.232Z" fill="#EDEBE9"/>
<path d="M56.0211 62.4694H45.6873C45.531 62.4692 45.3811 62.4068 45.2706 62.296C45.16 62.1851 45.0978 62.0348 45.0977 61.8781V52.6538C45.0978 52.497 45.16 52.3467 45.2706 52.2359C45.3811 52.125 45.531 52.0627 45.6873 52.0625H56.0211C56.1775 52.0627 56.3273 52.125 56.4379 52.2359C56.5484 52.3467 56.6106 52.497 56.6108 52.6538V61.8781C56.6106 62.0348 56.5484 62.1851 56.4379 62.296C56.3273 62.4068 56.1775 62.4692 56.0211 62.4694Z" fill="#EDEBE9"/>
<path d="M56.0211 81.1207H45.6873C45.531 81.1205 45.3811 81.0582 45.2706 80.9473C45.16 80.8365 45.0978 80.6861 45.0977 80.5294V71.3052C45.0978 71.1484 45.16 70.9981 45.2706 70.8872C45.3811 70.7764 45.531 70.714 45.6873 70.7139H56.0211C56.1775 70.714 56.3273 70.7764 56.4379 70.8872C56.5484 70.9981 56.6106 71.1484 56.6108 71.3052V80.5294C56.6106 80.6861 56.5484 80.8365 56.4379 80.9473C56.3273 81.0582 56.1775 81.1205 56.0211 81.1207Z" fill="#EDEBE9"/>
<path d="M91.7955 35.6558H70.2671C69.9409 35.6558 69.6281 35.5259 69.3975 35.2946C69.1669 35.0633 69.0374 34.7497 69.0374 34.4226C69.0374 34.0956 69.1669 33.7819 69.3975 33.5506C69.6281 33.3194 69.9409 33.1895 70.2671 33.1895H91.7955C92.1217 33.1895 92.4345 33.3194 92.6651 33.5506C92.8957 33.7819 93.0253 34.0956 93.0253 34.4226C93.0253 34.7497 92.8957 35.0633 92.6651 35.2946C92.4345 35.5259 92.1217 35.6558 91.7955 35.6558Z" fill="#DDDDDD"/>
<path d="M96.8682 39.8169H70.2671C70.1056 39.8169 69.9457 39.785 69.7965 39.723C69.6473 39.6611 69.5117 39.5702 69.3975 39.4557C69.2833 39.3412 69.1928 39.2053 69.131 39.0556C69.0692 38.906 69.0374 38.7457 69.0374 38.5837C69.0374 38.4218 69.0692 38.2614 69.131 38.1118C69.1928 37.9622 69.2833 37.8263 69.3975 37.7118C69.5117 37.5973 69.6473 37.5064 69.7965 37.4445C69.9457 37.3825 70.1056 37.3506 70.2671 37.3506H96.8682C97.1943 37.3506 97.5071 37.4805 97.7377 37.7118C97.9683 37.943 98.0979 38.2567 98.0979 38.5837C98.0979 38.9108 97.9683 39.2244 97.7377 39.4557C97.5071 39.687 97.1943 39.8169 96.8682 39.8169Z" fill="#DDDDDD"/>
<path d="M65.5024 44.8611H45.6551C45.4987 44.8609 45.3489 44.7986 45.2383 44.6877C45.1278 44.5769 45.0656 44.4266 45.0654 44.2698V28.7368C45.0656 28.58 45.1278 28.4297 45.2383 28.3189C45.3489 28.208 45.4987 28.1457 45.6551 28.1455H65.5024C65.6588 28.1457 65.8087 28.208 65.9192 28.3189C66.0297 28.4297 66.0919 28.58 66.0921 28.7368V44.2698C66.0919 44.4266 66.0297 44.5769 65.9192 44.6877C65.8087 44.7986 65.6588 44.8609 65.5024 44.8611Z" fill="#0078D4"/>
</g>
<defs>
<clipPath id="clip0_2125_8824">
<rect width="120" height="108" fill="white"/>
</clipPath>
</defs>
</svg>
