<svg width="16" height="16" viewBox="0 0 16 16" fill="none" xmlns="http://www.w3.org/2000/svg">
<path fill-rule="evenodd" clip-rule="evenodd" d="M7.53883 1.33301C9.1695 1.33301 10.4962 2.65967 10.4962 4.29034V4.91167C10.4962 5.18767 10.2722 5.41167 9.99616 5.41167C9.72016 5.41167 9.49616 5.18767 9.49616 4.91167V4.29034C9.49616 3.21034 8.61816 2.33301 7.53883 2.33301H4.28883C3.21083 2.33301 2.3335 3.21034 2.3335 4.29034V11.7097C2.3335 12.789 3.21083 13.6663 4.28883 13.6663H7.54616C8.62083 13.6663 9.49616 12.7917 9.49616 11.717V11.0883C9.49616 10.8123 9.72016 10.5883 9.99616 10.5883C10.2722 10.5883 10.4962 10.8123 10.4962 11.0883V11.717C10.4962 13.3437 9.17216 14.6663 7.54616 14.6663H4.28883C2.6595 14.6663 1.3335 13.3403 1.3335 11.7097V4.29034C1.3335 2.65967 2.6595 1.33301 4.28883 1.33301H7.53883ZM12.9256 5.70234L14.8776 7.64567C14.895 7.66295 14.9106 7.68092 14.9248 7.69994L14.8776 7.64567C14.9012 7.66896 14.9222 7.69441 14.9404 7.72154C14.9484 7.73384 14.9562 7.74655 14.9633 7.75962C14.9692 7.76983 14.9745 7.78049 14.9795 7.79132C14.9837 7.80089 14.9877 7.81046 14.9915 7.82019C14.9965 7.83286 15.0009 7.84588 15.0048 7.85908C15.0077 7.86948 15.0103 7.87985 15.0127 7.89034C15.0157 7.90308 15.018 7.91589 15.0199 7.9288C15.0209 7.93719 15.0219 7.94599 15.0227 7.95485C15.0242 7.97005 15.0249 7.98483 15.0249 7.99967L15.0215 8.04101L15.0201 8.06749C15.02 8.06862 15.0198 8.06975 15.0197 8.07088L15.0249 7.99967C15.0249 8.03668 15.0208 8.07333 15.0128 8.10895C15.0103 8.1195 15.0077 8.12987 15.0047 8.14011C15.0009 8.15347 14.9965 8.16649 14.9916 8.17931C14.9877 8.18888 14.9837 8.19846 14.9794 8.20788C14.9745 8.21886 14.9692 8.22952 14.9634 8.23998C14.9562 8.2528 14.9484 8.26551 14.9402 8.27784C14.9355 8.28514 14.9304 8.29236 14.925 8.29944C14.9091 8.32033 14.8919 8.33997 14.8731 8.35817L12.9256 10.2977C12.8282 10.395 12.7002 10.4437 12.5729 10.4437C12.4449 10.4437 12.3162 10.395 12.2189 10.2963C12.0242 10.1003 12.0249 9.78434 12.2202 9.58967L13.3135 8.49967H6.49736C6.22136 8.49967 5.99736 8.27567 5.99736 7.99967C5.99736 7.72367 6.22136 7.49967 6.49736 7.49967H13.3148L12.2202 6.41034C12.0249 6.21567 12.0236 5.89967 12.2189 5.70367C12.4136 5.50767 12.7296 5.50767 12.9256 5.70234Z" fill="#0078D4"/>
</svg>
