<svg width="17" height="16" viewBox="0 0 17 16" fill="none" xmlns="http://www.w3.org/2000/svg">
<g clip-path="url(#clip0_666_1357)">
<path fill-rule="evenodd" clip-rule="evenodd" d="M12.925 5.36847C13.2004 5.39114 13.4057 5.6318 13.3837 5.90714C13.3797 5.95247 13.0184 10.4265 12.8104 12.3031C12.681 13.4678 11.9117 14.1765 10.7504 14.1978C9.86169 14.2131 9.00435 14.2218 8.16635 14.2218C7.26302 14.2218 6.38235 14.2118 5.51102 14.1938C4.39635 14.1718 3.62502 13.4491 3.49902 12.3078C3.28902 10.4145 2.92969 5.9518 2.92635 5.90714C2.90369 5.6318 3.10902 5.39047 3.38435 5.36847C3.65569 5.36114 3.90102 5.55181 3.92302 5.82647C3.92515 5.85541 4.07205 7.67782 4.23213 9.48095L4.26428 9.84078C4.34491 10.737 4.42664 11.5982 4.49302 12.1978C4.56435 12.8465 4.91435 13.1811 5.53169 13.1938C7.19835 13.2291 8.89902 13.2311 10.7324 13.1978C11.3884 13.1851 11.743 12.8571 11.8164 12.1931C12.023 10.3305 12.383 5.87181 12.387 5.82647C12.409 5.55181 12.6524 5.3598 12.925 5.36847ZM9.56555 0.888672C10.1776 0.888672 10.7156 1.30134 10.8736 1.89267L11.0429 2.73334C11.0976 3.00892 11.3394 3.21018 11.6195 3.2146L13.8073 3.21467C14.0833 3.21467 14.3073 3.43867 14.3073 3.71467C14.3073 3.99067 14.0833 4.21467 13.8073 4.21467L11.639 4.21457C11.6356 4.21464 11.6323 4.21467 11.6289 4.21467L11.6126 4.214L4.69637 4.21459C4.69099 4.21464 4.68561 4.21467 4.68022 4.21467L4.66995 4.214L2.50195 4.21467C2.22595 4.21467 2.00195 3.99067 2.00195 3.71467C2.00195 3.43867 2.22595 3.21467 2.50195 3.21467L4.68929 3.21401L4.75663 3.20974C5.00749 3.1772 5.21598 2.98667 5.26689 2.73334L5.42889 1.92267C5.59355 1.30134 6.13155 0.888672 6.74355 0.888672H9.56555ZM9.56555 1.88867H6.74355C6.58355 1.88867 6.44289 1.99601 6.40222 2.15001L6.24689 2.93001C6.22714 3.0288 6.1984 3.12401 6.16161 3.21485H10.1477C10.1109 3.12401 10.082 3.0288 10.0622 2.93001L9.90022 2.11934C9.86622 1.99601 9.72555 1.88867 9.56555 1.88867Z" fill="#0078D4"/>
</g>
<defs>
<clipPath id="clip0_666_1357">
<rect width="16" height="16" fill="white" transform="translate(0.00195312)"/>
</clipPath>
</defs>
</svg>
