<svg width="24" height="24" viewBox="0 0 24 24" fill="none" xmlns="http://www.w3.org/2000/svg">
<path d="M18 23.25H6C4.20507 23.25 2.75 21.7949 2.75 20V4C2.75 2.20508 4.20507 0.75 6 0.75H14.3431C15.2051 0.75 16.0317 1.09241 16.6412 1.7019L18.4697 3.53033L20.2981 5.35876C20.9076 5.96825 21.25 6.7949 21.25 7.65685V20C21.25 21.7949 19.7949 23.25 18 23.25Z" stroke="#605E5C" stroke-width="1.5"/>
<path fill-rule="evenodd" clip-rule="evenodd" d="M6.75 7.25C6.33579 7.25 6 7.58579 6 8C6 8.41421 6.33579 8.75 6.75 8.75H9.25C9.66421 8.75 10 8.41421 10 8C10 7.58579 9.66421 7.25 9.25 7.25H6.75ZM6 12C6 11.5858 6.33579 11.25 6.75 11.25H15.25C15.6642 11.25 16 11.5858 16 12C16 12.4142 15.6642 12.75 15.25 12.75H6.75C6.33579 12.75 6 12.4142 6 12ZM6 16C6 15.5858 6.33579 15.25 6.75 15.25H15.25C15.6642 15.25 16 15.5858 16 16C16 16.4142 15.6642 16.75 15.25 16.75H6.75C6.33579 16.75 6 16.4142 6 16Z" fill="#605E5C"/>
<path fill-rule="evenodd" clip-rule="evenodd" d="M6.75 7.25C6.33579 7.25 6 7.58579 6 8C6 8.41421 6.33579 8.75 6.75 8.75H9.25C9.66421 8.75 10 8.41421 10 8C10 7.58579 9.66421 7.25 9.25 7.25H6.75ZM6 12C6 11.5858 6.33579 11.25 6.75 11.25H15.25C15.6642 11.25 16 11.5858 16 12C16 12.4142 15.6642 12.75 15.25 12.75H6.75C6.33579 12.75 6 12.4142 6 12ZM6 16C6 15.5858 6.33579 15.25 6.75 15.25H15.25C15.6642 15.25 16 15.5858 16 16C16 16.4142 15.6642 16.75 15.25 16.75H6.75C6.33579 16.75 6 16.4142 6 16Z" fill="#605E5C"/>
<path fill-rule="evenodd" clip-rule="evenodd" d="M6.75 7.25C6.33579 7.25 6 7.58579 6 8C6 8.41421 6.33579 8.75 6.75 8.75H9.25C9.66421 8.75 10 8.41421 10 8C10 7.58579 9.66421 7.25 9.25 7.25H6.75ZM6 12C6 11.5858 6.33579 11.25 6.75 11.25H15.25C15.6642 11.25 16 11.5858 16 12C16 12.4142 15.6642 12.75 15.25 12.75H6.75C6.33579 12.75 6 12.4142 6 12ZM6 16C6 15.5858 6.33579 15.25 6.75 15.25H15.25C15.6642 15.25 16 15.5858 16 16C16 16.4142 15.6642 16.75 15.25 16.75H6.75C6.33579 16.75 6 16.4142 6 16Z" fill="#605E5C"/>
<path d="M14.7113 0.774501C15.0202 0.80499 15.3231 0.880103 15.6104 0.997449L16.0416 1.22947L16.2837 1.39848L16.5062 1.56688L16.9697 2.03034L18.9693 4.02996L18.9697 4.03034L19.9149 4.97695L19.9149 4.97696L19.9181 4.98013L20.3997 5.45663L20.6608 5.79995C20.7158 5.87218 20.7651 5.94849 20.8084 6.02823L20.893 6.18384C20.9196 6.23278 20.9389 6.28534 20.9503 6.33986L20.9543 6.35876C20.9794 6.47821 21.016 6.59492 21.0638 6.70725L21.0668 6.71435C21.0846 6.7562 21.0938 6.80122 21.0938 6.8467C21.0938 6.98255 21.1088 7.11781 21.1385 7.25001H20.875H19.75H17.5H17C15.2051 7.25001 13.75 5.79493 13.75 4.00001V1.00001H13L13.75 1.00001C13.75 0.861936 13.8619 0.750007 14 0.750008L14.4631 0.750012L14.7113 0.774501Z" stroke="#605E5C" stroke-width="1.5"/>
</svg>
